<?xml version="1.0" encoding="utf-8"?>
<!-- Generator: Adobe Illustrator 21.0.0, SVG Export Plug-In . SVG Version: 6.00 Build 0)  -->
<svg version="1.1" id="Layer_1" xmlns="http://www.w3.org/2000/svg" xmlns:xlink="http://www.w3.org/1999/xlink" x="0px" y="0px"
	 viewBox="0 0 26.3 18" style="enable-background:new 0 0 26.3 18;" xml:space="preserve">
<style type="text/css">
	.st0{fill:#666666;}
	.st1{fill:none;stroke:#666666;}
</style>
<path class="st0" d="M11,6.5h13v3.2h-1V7.5H12v7h2.3v1H11V6.5z"/>
<path class="st1" d="M13.8,9.5h12v8h-12C13.8,17.5,13.8,9.5,13.8,9.5z"/>
<path class="st0" d="M26.3,11h-13v2h13V11z"/>
<path class="st1" d="M0.5,0.5h10v17h-10V0.5z"/>
<ellipse class="st0" cx="5.5" cy="13.1" rx="1.5" ry="1.5"/>
<path class="st0" d="M19.1,1.7h3.5c0-0.5-0.1-0.9-0.4-1.2C21.7,0.2,21,0,20.2,0h-2.4c-0.2,0-0.3,0.1-0.4,0.3l-1.1,6.6
	c0,0.1,0.1,0.2,0.2,0.2h1.4L18.8,2C18.8,1.9,18.9,1.7,19.1,1.7z"/>
<path class="st0" d="M22.3,2.1c-0.1,0-0.2,0-0.2-0.1h-2.7h-0.1c-0.1,0-0.2,0.1-0.2,0.2l-0.3,2.1h0.9c0.4,0,0.8,0,1.1-0.1
	c0.8-0.2,1.3-0.7,1.6-1.5c0.1-0.2,0.1-0.3,0.1-0.5C22.4,2.1,22.4,2.1,22.3,2.1z"/>
<path class="st0" d="M23,2.5l-0.2-0.2c-0.2,1-0.8,2.3-3.2,2.3H19c-0.2,0-0.3,0.1-0.4,0.3c0,0-0.4,2.7-0.5,2.9c0,0.1,0.1,0.2,0.2,0.2
	h1.2c0.2,0,0.3-0.1,0.3-0.3L20.1,6c0-0.2,0.2-0.3,0.3-0.3h0.2c1.3,0,2.3-0.5,2.6-2V3.6C23.4,3.2,23.3,2.8,23,2.5z"/>
</svg>
