<?xml version="1.0" encoding="utf-8"?>
<!-- Generator: Adobe Illustrator 21.0.0, SVG Export Plug-In . SVG Version: 6.00 Build 0)  -->
<svg version="1.1" id="Layer_1" xmlns="http://www.w3.org/2000/svg" xmlns:xlink="http://www.w3.org/1999/xlink" x="0px" y="0px"
	 viewBox="0 0 26.8 23.5" style="enable-background:new 0 0 26.8 23.5;" xml:space="preserve">
<style type="text/css">
	.st0{fill:#666666;}
	.st1{fill:none;stroke:#666666;stroke-miterlimit:10;}
	.st2{fill:none;stroke:#666666;}
</style>
<path class="st0" d="M5.4,19.1l5.3-2.8l-1.9-3.5l-5.3,2.8L2,12.9l-2,6.8l6.8,2L5.4,19.1z"/>
<path class="st1" d="M7.7,4.6L2.4,7.5L4.3,11l5.3-2.8l1.4,2.6L13,4L6.3,2C6.3,2,7.7,4.6,7.7,4.6z"/>
<path class="st2" d="M24.6,4.3c0-2.1-1.7-3.8-3.8-3.8c-2.1,0-3.8,1.7-3.8,3.8"/>
<path class="st2" d="M15.3,5h11v7h-11C15.3,12,15.3,5,15.3,5z"/>
<path class="st2" d="M16.5,18.5c0,2.5-2,4.5-4.6,4.5s-4.6-2-4.6-4.5s2-4.5,4.6-4.5S16.5,16,16.5,18.5z"/>
<path class="st2" d="M23.3,18.5c0,2.5-2,4.5-4.6,4.5s-4.6-2-4.6-4.5s2-4.5,4.6-4.5S23.3,16,23.3,18.5z"/>
</svg>
