<svg xmlns="http://www.w3.org/2000/svg" width="24" height="24" viewBox="0 0 24 24"><title>feature-global</title><path fill="#fff" d="M23,1H16V3h3.58594L16.90015,5.68579A7.99095,7.99095,0,0,0,5.68579,16.90015L3,19.58594V16H1v7H8V21H4.41406l2.68579-2.68579A7.99095,7.99095,0,0,0,18.31421,7.09985L21,4.41406V8h2Zm-5.19379,9.51416a9.142,9.142,0,0,1-1.83581,1.15991,12.34871,12.34871,0,0,0-1.16266-4.9729A6.01878,6.01878,0,0,1,17.80621,10.51416ZM9.17377,6.71A12.0398,12.0398,0,0,0,8.0249,11.67188a9.1305,9.1305,0,0,1-1.83111-1.15772A6.01961,6.01961,0,0,1,9.17377,6.71ZM6.07092,12.87354a11.04769,11.04769,0,0,0,2.10919,1.03,11.68687,11.68687,0,0,0,1.14332,3.4585A6.00685,6.00685,0,0,1,6.07092,12.87354ZM12.08752,17.96a9.14061,9.14061,0,0,1-1.76574-3.51318A11.25713,11.25713,0,0,0,12,14.585a11.285,11.285,0,0,0,1.71692-.1438A9.51735,9.51735,0,0,1,12.08752,17.96ZM12,12.585a9.21478,9.21478,0,0,1-1.9845-.22168A9.717,9.717,0,0,1,11.94,6.00293C11.96021,6.00293,11.97974,6,12,6c.02008,0,.03949.00293.05951.00293a9.99206,9.99206,0,0,1,1.93054,6.35913A9.2339,9.2339,0,0,1,12,12.585Zm2.806,4.7146a12.11389,12.11389,0,0,0,1.03088-3.4021,11.05219,11.05219,0,0,0,2.09217-1.02392A6.00872,6.00872,0,0,1,14.806,17.29956Z"/></svg>