<svg viewBox="0 0 20 20" class="icon--svg search__icon search__icon--tooltip" aria-labeledby="information-tooltip" xmlns="http://www.w3.org/2000/svg"><path d="M10 2a8 8 0 1 1-8 8 8 8 0 0 1 8-8m0-2a10 10 0 1 0 10 10A10 10 0 0 0 10 0z" fill="#706D78"/><path d="M13.91 7.3a3 3 0 0 1-.13.93 2.75 2.75 0 0 1-.36.74 3.62 3.62 0 0 1-.56.63q-.33.3-.75.62l-.43.37a1.49 1.49 0 0 0-.27.33 1.27 1.27 0 0 0-.14.35 2.06 2.06 0 0 0 0 .44v.42H8.73v-.61a3.15 3.15 0 0 1 .08-.75 2.21 2.21 0 0 1 .24-.6 3.16 3.16 0 0 1 .39-.53 5.83 5.83 0 0 1 .56-.53l.53-.5a3.15 3.15 0 0 0 .47-.5 1.05 1.05 0 0 0 .19-.63 1.1 1.1 0 0 0-.31-.82 1.18 1.18 0 0 0-.86-.3 1.17 1.17 0 0 0-1 .46 1.88 1.88 0 0 0-.37 1l-2.56-.25A4.26 4.26 0 0 1 6.53 6a3.37 3.37 0 0 1 .89-1 3.79 3.79 0 0 1 1.24-.65 4.87 4.87 0 0 1 1.46-.22 5.39 5.39 0 0 1 1.41.18 3.58 3.58 0 0 1 1.21.58 2.92 2.92 0 0 1 .85 1 3.06 3.06 0 0 1 .32 1.41zm-2.36 7.09a1.46 1.46 0 0 1-.45 1.08 1.52 1.52 0 0 1-1.11.44 1.61 1.61 0 0 1-.6-.11 1.51 1.51 0 0 1-.5-.32 1.61 1.61 0 0 1-.33-.48 1.37 1.37 0 0 1-.13-.59 1.48 1.48 0 0 1 .12-.58 1.46 1.46 0 0 1 .34-.49 1.59 1.59 0 0 1 .5-.34 1.56 1.56 0 0 1 .61-.12 1.5 1.5 0 0 1 .6.12 1.7 1.7 0 0 1 .5.32 1.41 1.41 0 0 1 .34.48 1.49 1.49 0 0 1 .12.59z" fill="#706D78"/></svg>