<svg width="35" height="35" viewBox="0 0 35 35" fill="none" xmlns="http://www.w3.org/2000/svg">
<circle cx="17.5" cy="17.5" r="17.5" fill="#202020" fill-opacity="0.08"/>
<path d="M15.7827 21.5551C16.884 21.5549 17.9621 21.238 18.8884 20.6422L24.2467 26L26 24.2468L20.6444 18.8917C21.3361 17.8108 21.6483 16.5303 21.5316 15.2522C21.4149 13.9742 20.876 12.7714 19.9999 11.8336C19.1239 10.8958 17.9604 10.2763 16.6933 10.073C15.4261 9.86965 14.1273 10.094 13.0017 10.7106C11.8762 11.3272 10.988 12.301 10.4772 13.4783C9.96649 14.6557 9.8623 15.9695 10.1811 17.2127C10.4999 18.4558 11.2235 19.5574 12.2378 20.3437C13.2521 21.1299 14.4993 21.5562 15.7827 21.5551H15.7827ZM15.7827 11.6422C16.5996 11.6422 17.3982 11.8845 18.0775 12.3383C18.7567 12.7922 19.2862 13.4372 19.5988 14.192C19.9114 14.9467 19.9932 15.7772 19.8338 16.5784C19.6745 17.3796 19.2811 18.1155 18.7034 18.6932C18.1257 19.2708 17.3897 19.6642 16.5885 19.8236C15.7873 19.9829 14.9568 19.9011 14.202 19.5885C13.4472 19.2759 12.8021 18.7465 12.3483 18.0673C11.8944 17.388 11.6522 16.5895 11.6522 15.7726C11.6534 14.6775 12.089 13.6277 12.8634 12.8534C13.6377 12.0791 14.6876 11.6435 15.7827 11.6422Z" fill="black"/>
</svg>
