<svg xmlns="http://www.w3.org/2000/svg" width="24" height="24" viewBox="0 0 24 24"><title>object-api-wires-outline</title><path fill="#fff" d="M4,2.5957l2.2002.7334c.0166.042.03418.0835.05175.12451L5.21484,5.52832,7.47168,7.78516,9.5459,6.74805c.041.01757.083.03466.125.05175L10.4043,9h3.1914l.7334-2.2002c.042-.0166.083-.03418.125-.05175l2.07422,1.03711,2.25684-2.25684L17.74805,3.45361c.01757-.041.03515-.08252.05175-.12451L20,2.5957V1H18.708L18.68359.92627,18.46289,1H18v.1543l-1.78613.59521-.15039.49414a4.19541,4.19541,0,0,1-.31055.749l-.24414.456.84277,1.68506-.21777.21777-1.68555-.84277-.456.24414a4.155,4.155,0,0,1-.75.31152l-.49317.15039L12.1543,7h-.3086L11.25,5.21533l-.49316-.15088a4.17506,4.17506,0,0,1-.749-.31152l-.456-.24414-1.68555.84277-.21777-.21777.84277-1.68506-.24414-.456a4.19541,4.19541,0,0,1-.31055-.749l-.15039-.49414L6,1.1543V1H5.53711L5.31641.92627,5.292,1H4Z"/><path fill="#fff" d="M9.09863.88867,9.083,1.0835a2.917,2.917,0,0,0,5.834,0L14.90723.96533,14.90039.88574,13.9082,1l-.999.03467.00684.09717a.91742.91742,0,0,1-1.833-.01856l.00781-.07861Z"/><path fill="#fff" d="M2,16H5.2774a2,2,0,1,0,0-2H4V11.41406L6.707,8.707,5.293,7.293,2,10.58594Z"/><path fill="#fff" d="M22,14V10.58594L18.707,7.293,17.293,8.707,20,11.41406V12H15v7h3.2774a2,2,0,1,0,0-2H17V14Z"/><path fill="#fff" d="M4,22a1.99161,1.99161,0,0,0,1.7226-1H13V10H11v9H5.7226A1.99655,1.99655,0,1,0,4,22Z"/></svg>