<svg width="20" height="20" viewBox="0 0 20 20" fill="none" xmlns="http://www.w3.org/2000/svg">
<path d="M6.99994 13.988C8.33314 13.9878 9.63816 13.6042 10.7595 12.883L17.2456 19.3688L19.368 17.2466L12.885 10.7639C13.7224 9.45534 14.1003 7.90523 13.959 6.35811C13.8178 4.811 13.1654 3.35494 12.1049 2.21967C11.0444 1.08439 9.63613 0.334526 8.1022 0.0883654C6.56828 -0.157795 4.99605 0.113766 3.63358 0.860206C2.2711 1.60665 1.19592 2.78547 0.577676 4.21071C-0.0405686 5.63594 -0.16669 7.22645 0.219211 8.73131C0.605111 10.2362 1.48107 11.5697 2.70888 12.5216C3.93669 13.4734 5.44647 13.9893 7.00002 13.988H6.99994ZM6.99994 1.98801C7.98884 1.98801 8.95554 2.28125 9.77779 2.83066C10.6 3.38007 11.2409 4.16096 11.6193 5.07459C11.9978 5.98822 12.0968 6.99355 11.9039 7.96346C11.7109 8.93336 11.2347 9.82428 10.5355 10.5235C9.83621 11.2228 8.9453 11.699 7.97539 11.8919C7.00549 12.0849 6.00015 11.9858 5.08652 11.6074C4.17289 11.229 3.392 10.5881 2.84259 9.76586C2.29318 8.94361 1.99994 7.97691 1.99994 6.98801C2.0015 5.6624 2.52878 4.39154 3.46613 3.4542C4.40347 2.51685 5.67433 1.98957 6.99994 1.98801Z" fill="white"/>
</svg>

