<svg width="31" height="31" xmlns="http://www.w3.org/2000/svg" xmlns:xlink="http://www.w3.org/1999/xlink"><use xlink:href="#path0_fill" fill="#1524D9" fill-opacity=".08"/><use xlink:href="#path1_fill" transform="translate(3 5)" fill="#1524D9"/><defs><path id="path0_fill" d="M31 15.5C31 24.06 24.06 31 15.5 31 6.94 31 0 24.06 0 15.5 0 6.94 6.94 0 15.5 0 24.06 0 31 6.94 31 15.5z"/><path id="path1_fill" d="M7.969 14.405l.85-1.717-4.114-2.482 4.114-2.533-.85-1.7-6.902 4.233 6.902 4.199zm8.96-10.132l-1.734-.85-6.273 12.852 1.734.85L16.93 4.273zm.97 1.7l-.85 1.717 4.115 2.482-4.114 2.533.85 1.7 6.902-4.233L17.9 5.973z"/></defs></svg>