<svg xmlns="http://www.w3.org/2000/svg" width="24" height="24" viewBox="0 0 24 24"><title>object-cost-optimization</title><path fill="#fff" d="M16.99994,17.1875,17,15.8125,15.44489,15.294a4.09622,4.09622,0,0,0-.30323-.73l.73358-1.467-.97222-.97241-1.46723.73389a4.0758,4.0758,0,0,0-.72986-.30322L12.18756,11H10.81262l-.51837,1.55518a4.09387,4.09387,0,0,0-.72992.303l-1.46716-.73364-.97229.97241.73358,1.467a4.10388,4.10388,0,0,0-.30322.73l-1.55512.51855-.00006,1.37476,1.55512.51855a4.10326,4.10326,0,0,0,.30316.73l-.73346,1.467.97217.97217,1.467-.7334a4.094,4.094,0,0,0,.73022.30322l.51831,1.55494L12.1875,22l.51837-1.55518a4.114,4.114,0,0,0,.73023-.30322l1.46692.7334.97222-.97217-.73352-1.467a4.09885,4.09885,0,0,0,.30317-.73ZM11.5,18A1.5,1.5,0,1,1,13,16.5,1.5,1.5,0,0,1,11.5,18Z"/><polygon fill="#fff" points="5.293 10.293 6.707 11.707 11.021 7.394 14.202 10.394 18.298 6.298 20 8 20 3 15 3 16.884 4.884 14.161 7.606 10.979 4.606 5.293 10.293"/></svg>