<svg width="18" height="18" xmlns="http://www.w3.org/2000/svg"><g fill="#888" fill-rule="evenodd"><path d="M9 1.624c2.402 0 2.687.01 3.636.052.877.04 1.353.187 1.67.31.42.163.72.358 1.035.673.315.315.51.615.673 1.035.123.317.27.793.31 1.67.043.95.052 1.234.052 3.636s-.01 2.687-.052 3.636c-.04.877-.187 1.353-.31 1.67-.163.42-.358.72-.673 1.035-.315.315-.615.51-1.035.673-.317.123-.793.27-1.67.31-.949.043-1.233.052-3.636.052-2.402 0-2.687-.01-3.636-.052-.877-.04-1.353-.187-1.67-.31a2.787 2.787 0 0 1-1.035-.673 2.787 2.787 0 0 1-.673-1.035c-.123-.317-.27-.793-.31-1.67-.043-.95-.052-1.234-.052-3.636s.01-2.687.052-3.636c.04-.877.187-1.353.31-1.67.163-.42.358-.72.673-1.035.315-.315.615-.51 1.035-.673.317-.123.793-.27 1.67-.31.95-.043 1.234-.052 3.636-.052M9 .003c-2.444 0-2.75.01-3.71.054-.957.044-1.611.196-2.183.418a4.41 4.41 0 0 0-1.594 1.038A4.41 4.41 0 0 0 .475 3.107C.253 3.679.101 4.332.057 5.29.013 6.25.003 6.556.003 9s.01 2.75.054 3.71c.044.957.196 1.611.418 2.183a4.41 4.41 0 0 0 1.038 1.594c.5.5 1.002.808 1.594 1.038.572.222 1.226.374 2.183.418.96.044 1.266.054 3.71.054s2.75-.01 3.71-.054c.957-.044 1.611-.196 2.183-.418a4.41 4.41 0 0 0 1.594-1.038c.5-.5.808-1.002 1.038-1.593.222-.573.374-1.227.418-2.184.044-.96.054-1.267.054-3.71 0-2.444-.01-2.75-.054-3.71-.044-.957-.196-1.611-.418-2.183a4.41 4.41 0 0 0-1.038-1.594A4.41 4.41 0 0 0 14.894.475C14.32.253 13.666.101 12.71.057 11.75.013 11.443.003 9 .003"/><path d="M9 4.38a4.62 4.62 0 1 0 0 9.24 4.62 4.62 0 0 0 0-9.24zM9 12a3 3 0 1 1 0-6 3 3 0 0 1 0 6zm5.882-7.803a1.08 1.08 0 1 1-2.159 0 1.08 1.08 0 0 1 2.16 0"/></g></svg>